<svg id="Capa_1" enable-background="new 0 0 512 512" height="512" viewBox="0 0 512 512" width="512" xmlns="http://www.w3.org/2000/svg"><g><path d="m274.291 68.189c-11.042-7.497-25.54-7.497-36.581 0l-212.9 144.55 212.9 144.55c11.042 7.497 25.54 7.497 36.581 0l212.9-144.55z" fill="#7a8c98"/><path d="m414.745 423.927h-321.733c-10.829 0-19.607-8.778-19.607-19.607v-384.713c0-10.829 8.778-19.607 19.607-19.607h321.733c10.829 0 19.607 8.778 19.607 19.607v384.713c0 10.829-8.778 19.607-19.607 19.607z" fill="#ffd15b"/><path d="m414.745 0h-41.207c10.829 0 19.607 8.778 19.607 19.607v384.713c0 10.829-8.778 19.607-19.607 19.607h41.207c10.829 0 19.607-8.778 19.607-19.607v-384.713c0-10.829-8.778-19.607-19.607-19.607z" fill="#ffc344"/><path d="m274.291 357.289c-11.042 7.497-25.54 7.497-36.581 0l-212.9-144.55v278.657c0 11.379 9.225 20.604 20.604 20.604h421.174c11.379 0 20.604-9.225 20.604-20.604v-278.657z" fill="#0ab69f"/><path d="m445.984 240.717 41.207-27.978-41.207-27.978z" fill="#596c76"/><path d="m487.191 212.739-41.207 27.978v271.283h20.604c11.379 0 20.604-9.225 20.604-20.604z" fill="#01998d"/><g><path d="m188.055 249.31v-112.18h-33.965v112.179c0 9.237 7.481 16.728 16.718 16.74.161 0 .323 0 .484.001 9.255.013 16.763-7.486 16.763-16.74z" fill="#0593fc"/></g><g><path d="m395.637 139.066h-30.729c-4.243 0-7.683-3.44-7.683-7.683s3.439-7.683 7.683-7.683h30.729c4.243 0 7.683 3.44 7.683 7.683s-3.44 7.683-7.683 7.683z" fill="#fd4755"/></g><g><path d="m369.413 95.286c-2.235 0-4.449-.97-5.968-2.839-2.675-3.293-2.175-8.132 1.119-10.807l21.728-17.651c3.292-2.676 8.132-2.173 10.807 1.119 2.675 3.293 2.175 8.132-1.119 10.807l-21.728 17.651c-1.424 1.157-3.137 1.72-4.839 1.72z" fill="#fd4755"/></g><g><path d="m391.131 200.497c-1.702 0-3.415-.563-4.839-1.72l-21.728-17.651c-3.294-2.675-3.794-7.514-1.119-10.807 2.674-3.293 7.513-3.795 10.807-1.119l21.728 17.651c3.294 2.675 3.794 7.514 1.119 10.807-1.518 1.87-3.734 2.839-5.968 2.839z" fill="#fd4755"/></g><path d="m324.638 158.555h-40.728v-54.343h40.728c6.378 0 11.548 5.17 11.548 11.548v31.247c0 6.378-5.17 11.548-11.548 11.548z" fill="#60b7ff"/><path d="m211.356 177.619h-56.424c-25.544 0-46.252-20.708-46.252-46.252 0-25.544 20.708-46.252 46.252-46.252h56.424z" fill="#fe646f"/><path d="m302.871 54.059-91.514 31.057v92.503l91.514 31.057c3.05 1.035 6.215-1.233 6.215-4.454v-145.709c0-3.221-3.165-5.489-6.215-4.454z" fill="#b3dafe"/><path d="m195.615 328.708-164.974 177.034c3.744 3.854 8.973 6.258 14.771 6.258h421.177c5.798 0 11.027-2.404 14.771-6.258l-164.974-177.034c-8.931 6.064-33.368 22.655-42.095 28.581-11.087 7.528-25.581 7.469-36.581 0z" fill="#01998d"/><path d="m481.359 505.742-35.376-37.962v44.22h20.605c5.798 0 11.027-2.404 14.771-6.258z" fill="#008b81"/></g></svg>