<svg height="512pt" viewBox="0 0 512 512" width="512pt" xmlns="http://www.w3.org/2000/svg"><path d="m312.40625 95.457031v399.1875c-.027344 9.574219-7.78125 17.328125-17.355469 17.355469h-277.695312c-9.574219-.027344-17.3281252-7.78125-17.355469-17.355469v-468.609375c.0273438-9.574218 7.78125-17.328125 17.355469-17.355468h208.273437zm0 0" fill="#285680"/><path d="m312.40625 95.457031v347.121094h-312.40625v-364.476563h295.050781zm0 0" fill="#b0d3f0"/><path d="m277.695312 338.441406c0 67.097656-54.394531 121.492188-121.492187 121.492188s-121.492187-54.394532-121.492187-121.492188 54.394531-121.492187 121.492187-121.492187 121.492187 54.394531 121.492187 121.492187zm0 0" fill="#e6e7e8"/><path d="m451.253906 303.730469c-2.300781-.003907-4.507812-.917969-6.136718-2.542969l-11.21875-11.222656-11.222657 11.222656c-3.402343 3.289062-8.816406 3.242188-12.164062-.105469-3.347657-3.347656-3.394531-8.761719-.105469-12.167969l17.355469-17.355468c3.390625-3.386719 8.882812-3.386719 12.273437 0l17.355469 17.355468c2.480469 2.484376 3.222656 6.214844 1.878906 9.457032-1.34375 3.242187-4.507812 5.355468-8.015625 5.359375zm0 0" fill="#ff5364"/><path d="m451.253906 104.136719c-2.300781 0-4.507812-.917969-6.136718-2.542969l-11.21875-11.222656-11.222657 11.222656c-3.402343 3.289062-8.816406 3.242188-12.164062-.105469-3.347657-3.347656-3.394531-8.761719-.105469-12.164062l17.355469-17.359375c3.390625-3.386719 8.882812-3.386719 12.273437 0l17.355469 17.359375c2.480469 2.480469 3.222656 6.210937 1.878906 9.453125-1.34375 3.242187-4.507812 5.359375-8.015625 5.359375zm0 0" fill="#ff5364"/><path d="m156.203125 468.609375c-67.027344-.011719-123.085937-50.921875-129.539063-117.636719-6.453124-66.714844 38.808594-127.421875 104.589844-140.28125 65.78125-12.863281 130.574219 26.332032 149.722656 90.5625.996094 3.007813.28125 6.316406-1.871093 8.636719-2.152344 2.324219-5.398438 3.289063-8.46875 2.519531-3.074219-.765625-5.484375-3.144531-6.289063-6.207031-16.007812-53.679687-68.972656-87.480469-124.398437-79.394531-55.425781 8.089844-96.523438 55.621094-96.523438 111.632812 0 56.011719 41.097657 103.542969 96.523438 111.628906 55.425781 8.089844 108.390625-25.714843 124.398437-79.390624.804688-3.0625 3.214844-5.441407 6.289063-6.210938 3.070312-.765625 6.316406.199219 8.46875 2.519531 2.152343 2.324219 2.867187 5.632813 1.871093 8.636719-16.664062 55.027344-67.277343 92.746094-124.773437 92.984375zm0 0" fill="#c03a2b"/><path d="m156.203125 425.21875c-42.800781-.007812-79.203125-31.222656-85.742187-73.519531-6.539063-42.296875 18.738281-83.046875 59.535156-95.980469 40.800781-12.933594 84.9375 5.808594 103.960937 44.148438 1.40625 2.78125 1.21875 6.101562-.5 8.699218-1.714843 2.601563-4.695312 4.082032-7.804687 3.878906-3.109375-.203124-5.871094-2.054687-7.238282-4.855468-14.273437-28.789063-46.445312-44.019532-77.761718-36.8125-31.316406 7.207031-53.597656 34.964844-53.855469 67.097656-.257813 32.136719 21.574219 60.246094 52.769531 67.957031 31.199219 7.707031 63.609375-7.003906 78.347656-35.5625 2.199219-4.257812 7.433594-5.929687 11.695313-3.730469 4.261719 2.199219 5.933594 7.4375 3.734375 11.699219-14.851562 28.902344-44.644531 47.046875-77.140625 46.980469zm0 0" fill="#e64c3c"/><path d="m156.203125 381.832031c-18.242187 0-34.535156-11.410156-40.773437-28.550781-6.242188-17.140625-1.09375-36.355469 12.882812-48.078125 13.972656-11.726563 33.789062-13.460937 49.585938-4.339844 3.925781 2.496094 5.183593 7.640625 2.859374 11.667969-2.328124 4.027344-7.417968 5.503906-11.539062 3.347656-10.941406-6.300781-24.824219-3.839844-32.9375 5.835938-8.109375 9.675781-8.109375 23.777344 0 33.453125 8.113281 9.671875 21.996094 12.132812 32.9375 5.835937 4.121094-2.15625 9.210938-.679687 11.539062 3.347656 2.324219 4.023438 1.066407 9.167969-2.859374 11.664063-6.59375 3.8125-14.078126 5.820313-21.695313 5.816406zm0 0" fill="#c03a2b"/><path d="m347.117188 347.117188h-17.355469c-4.792969 0-8.675781-3.882813-8.675781-8.675782 0-4.792968 3.882812-8.679687 8.675781-8.679687h17.355469c4.792968 0 8.679687 3.886719 8.679687 8.679687 0 4.792969-3.886719 8.675782-8.679687 8.675782zm0 0" fill="#ff5364"/><path d="m295.050781 347.117188h-17.355469c-4.792968 0-8.679687-3.882813-8.679687-8.675782 0-4.792968 3.886719-8.679687 8.679687-8.679687h17.355469c4.792969 0 8.679688 3.886719 8.679688 8.679687 0 4.792969-3.886719 8.675782-8.679688 8.675782zm0 0" fill="#ff5364"/><path d="m242.984375 347.117188h-17.355469c-4.792968 0-8.679687-3.882813-8.679687-8.675782 0-4.792968 3.886719-8.679687 8.679687-8.679687h17.355469c4.792969 0 8.675781 3.886719 8.675781 8.679687 0 4.792969-3.882812 8.675782-8.675781 8.675782zm0 0" fill="#ff5364"/><path d="m190.914062 347.117188h-26.03125c-4.792968 0-8.679687-3.882813-8.679687-8.675782 0-4.792968 3.886719-8.679687 8.679687-8.679687h26.03125c4.792969 0 8.679688 3.886719 8.679688 8.679687 0 4.792969-3.886719 8.675782-8.679688 8.675782zm0 0" fill="#ff5364"/><g fill="#f0c419"><path d="m485.964844 260.339844c-14.375 0-26.03125-11.65625-26.03125-26.035156 0-14.378907 11.65625-26.035157 26.03125-26.035157 14.378906 0 26.035156 11.65625 26.035156 26.035157 0 14.378906-11.65625 26.035156-26.035156 26.035156zm0-34.710938c-4.792969 0-8.675782 3.882813-8.675782 8.675782 0 4.792968 3.882813 8.679687 8.675782 8.679687 4.792968 0 8.679687-3.886719 8.679687-8.679687 0-4.792969-3.886719-8.675782-8.679687-8.675782zm0 0"/><path d="m373.152344 269.015625c-4.792969 0-8.679688-3.882813-8.679688-8.675781v-17.355469c0-9.585937 7.773438-17.355469 17.359375-17.355469h86.777344c4.792969 0 8.679687 3.882813 8.679687 8.675782 0 4.792968-3.886718 8.679687-8.679687 8.679687h-86.777344v17.355469c0 4.792968-3.886719 8.675781-8.679687 8.675781zm0 0"/><path d="m407.863281 269.015625c-4.792969 0-8.675781-3.882813-8.675781-8.675781v-26.035156c0-4.792969 3.882812-8.675782 8.675781-8.675782s8.679688 3.882813 8.679688 8.675782v26.035156c0 4.792968-3.886719 8.675781-8.679688 8.675781zm0 0"/><path d="m485.964844 52.066406c-14.375 0-26.03125-11.65625-26.03125-26.03125 0-14.378906 11.65625-26.035156 26.03125-26.035156 14.378906 0 26.035156 11.65625 26.035156 26.035156 0 6.902344-2.742188 13.523438-7.625 18.40625-4.882812 4.882813-11.503906 7.625-18.410156 7.625zm0-34.710937c-4.792969 0-8.675782 3.886719-8.675782 8.679687 0 4.792969 3.882813 8.675782 8.675782 8.675782 4.792968 0 8.679687-3.882813 8.679687-8.675782 0-2.304687-.914062-4.511718-2.542969-6.136718-1.625-1.628907-3.832031-2.542969-6.136718-2.542969zm0 0"/><path d="m373.152344 60.746094c-4.792969 0-8.679688-3.886719-8.679688-8.679688v-17.355468c0-9.585938 7.773438-17.355469 17.359375-17.355469h86.777344c4.792969 0 8.679687 3.886719 8.679687 8.679687 0 4.792969-3.886718 8.675782-8.679687 8.675782h-86.777344v17.355468c0 4.792969-3.886719 8.679688-8.679687 8.679688zm0 0"/><path d="m407.863281 60.746094c-4.792969 0-8.675781-3.886719-8.675781-8.679688v-26.03125c0-4.792968 3.882812-8.679687 8.675781-8.679687s8.679688 3.886719 8.679688 8.679687v26.03125c0 4.792969-3.886719 8.679688-8.679688 8.679688zm0 0"/></g><path d="m433.898438 156.203125c-4.792969 0-8.679688-3.886719-8.679688-8.675781v-69.425782c0-4.792968 3.886719-8.679687 8.679688-8.679687 4.792968 0 8.679687 3.886719 8.679687 8.679687v69.425782c0 4.789062-3.886719 8.675781-8.679687 8.675781zm0 0" fill="#ff5364"/><path d="m433.898438 208.269531c-4.792969 0-8.679688-3.882812-8.679688-8.675781v-17.355469c0-4.792969 3.886719-8.679687 8.679688-8.679687 4.792968 0 8.679687 3.886718 8.679687 8.679687v17.355469c0 4.792969-3.886719 8.675781-8.679687 8.675781zm0 0" fill="#ff5364"/><path d="m416.542969 347.117188h-34.710938c-4.792969 0-8.679687-3.882813-8.679687-8.675782 0-4.792968 3.886718-8.679687 8.679687-8.679687h34.710938c4.792969 0 8.675781-3.882813 8.675781-8.675781v-34.714844c0-4.789063 3.886719-8.675782 8.679688-8.675782 4.792968 0 8.679687 3.886719 8.679687 8.675782v34.714844c0 14.375-11.65625 26.03125-26.035156 26.03125zm0 0" fill="#ff5364"/><path d="m312.40625 95.457031-86.777344-86.777343v69.421874c0 9.585938 7.769532 17.355469 17.355469 17.355469zm0 0" fill="#2c3e50"/><path d="m43.390625 43.390625c0 4.792969-3.886719 8.675781-8.679687 8.675781-4.792969 0-8.675782-3.882812-8.675782-8.675781s3.882813-8.679687 8.675782-8.679687c4.792968 0 8.679687 3.886718 8.679687 8.679687zm0 0" fill="#e64c3c"/><path d="m78.101562 43.390625c0 4.792969-3.886718 8.675781-8.679687 8.675781-4.789063 0-8.675781-3.882812-8.675781-8.675781s3.886718-8.679687 8.675781-8.679687c4.792969 0 8.679687 3.886718 8.679687 8.679687zm0 0" fill="#f0c419"/><path d="m112.8125 43.390625c0 4.792969-3.882812 8.675781-8.675781 8.675781s-8.679688-3.882812-8.679688-8.675781 3.886719-8.679687 8.679688-8.679687 8.675781 3.886718 8.675781 8.679687zm0 0" fill="#4fba6f"/><path d="m43.390625 112.8125h138.847656c4.792969 0 8.675781 3.886719 8.675781 8.679688v17.355468c0 4.792969-3.882812 8.679688-8.675781 8.679688h-138.847656c-4.792969 0-8.679687-3.886719-8.679687-8.679688v-17.355468c0-4.792969 3.886718-8.679688 8.679687-8.679688zm0 0" fill="#fff"/><path d="m190.914062 190.914062h-156.203124c-4.792969 0-8.675782-3.882812-8.675782-8.675781s3.882813-8.679687 8.675782-8.679687h156.203124c4.792969 0 8.679688 3.886718 8.679688 8.679687s-3.886719 8.675781-8.679688 8.675781zm0 0" fill="#285680"/><path d="m277.695312 190.914062h-52.066406c-4.792968 0-8.679687-3.882812-8.679687-8.675781s3.886719-8.679687 8.679687-8.679687h52.066406c4.792969 0 8.675782 3.886718 8.675782 8.679687s-3.882813 8.675781-8.675782 8.675781zm0 0" fill="#285680"/><path d="m277.695312 225.628906h-17.355468c-4.792969 0-8.679688-3.886718-8.679688-8.679687s3.886719-8.679688 8.679688-8.679688h17.355468c4.792969 0 8.675782 3.886719 8.675782 8.679688s-3.882813 8.679687-8.675782 8.679687zm0 0" fill="#285680"/><path d="m52.066406 225.628906h-17.355468c-4.792969 0-8.675782-3.886718-8.675782-8.679687s3.882813-8.679688 8.675782-8.679688h17.355468c4.792969 0 8.679688 3.886719 8.679688 8.679688s-3.886719 8.679687-8.679688 8.679687zm0 0" fill="#285680"/><path d="m277.695312 156.203125h-52.066406c-4.792968 0-8.679687-3.886719-8.679687-8.675781 0-4.792969 3.886719-8.679688 8.679687-8.679688h52.066406c4.792969 0 8.675782 3.886719 8.675782 8.679688 0 4.789062-3.882813 8.675781-8.675782 8.675781zm0 0" fill="#285680"/></svg>