<?xml version="1.0" encoding="iso-8859-1"?>
<!-- Generator: Adobe Illustrator 19.0.0, SVG Export Plug-In . SVG Version: 6.00 Build 0)  -->
<svg xmlns="http://www.w3.org/2000/svg" xmlns:xlink="http://www.w3.org/1999/xlink" version="1.1" id="Capa_1" x="0px" y="0px" viewBox="0 0 471.596 471.596" style="enable-background:new 0 0 471.596 471.596;" xml:space="preserve" width="512" height="512">
<g>
	<path style="fill:#6BE8C7;" d="M296.738,441.309c0,8.742-7.087,15.829-15.829,15.829h-90.413c-8.742,0-15.829-7.087-15.829-15.829   V29.744c0-8.742,7.087-15.829,15.829-15.829h90.413c8.742,0,15.829,7.087,15.829,15.829V441.309z"/>
	<path style="fill:#6BE8C7;" d="M349.524,441.852c0,8.742,7.087,15.829,15.829,15.829h90.413c8.742,0,15.829-7.087,15.829-15.829   V30.287c0-8.742-7.087-15.829-15.829-15.829h-90.413c-8.742,0-15.829,7.087-15.829,15.829L349.524,441.852z"/>
	<path style="fill:#6BE8C7;" d="M122.072,441.309c0,8.742-7.087,15.829-15.829,15.829H15.829C7.087,457.139,0,450.052,0,441.309   V29.744c0-8.742,7.087-15.829,15.829-15.829h90.413c8.742,0,15.829,7.087,15.829,15.829V441.309z"/>
	<path style="fill:#3CD3A8;" d="M38.477,365.612V86.128c0-2.388,1.892-4.164,4.278-4.243c6.078-0.202,17.08-0.22,23.122,0   c2.379,0.087,4.258,2.217,4.258,4.598v248.095L38.477,365.612z"/>
	<path style="fill:#3CD3A8;" d="M420.755,365.612V86.128c0-2.388,1.892-4.164,4.278-4.243c6.078-0.202,17.08-0.22,23.122,0   c2.379,0.087,4.258,2.217,4.258,4.598v265.154L420.755,365.612z"/>
	<path style="fill:#3CD3A8;" d="M211.473,365.612V86.128c0-2.388,1.892-4.164,4.278-4.243c6.078-0.202,17.08-0.22,23.122,0   c2.379,0.087,4.258,2.217,4.258,4.598v265.154L211.473,365.612z"/>
	<g>
		<path style="fill:#3CD3A8;" d="M96.816,311.411c-4.142,0-7.5-3.357-7.5-7.5V53.868c0-4.143,3.358-7.5,7.5-7.5s7.5,3.357,7.5,7.5    v250.043C104.316,308.054,100.958,311.411,96.816,311.411z"/>
	</g>
	<g>
		<path style="fill:#3CD3A8;" d="M387.111,311.411c-4.142,0-7.5-3.357-7.5-7.5V53.868c0-4.143,3.358-7.5,7.5-7.5s7.5,3.357,7.5,7.5    v250.043C394.611,308.054,391.253,311.411,387.111,311.411z"/>
	</g>
	<g>
		<path style="fill:#3CD3A8;" d="M272.343,341.369c-4.142,0-7.5-3.357-7.5-7.5V83.826c0-4.143,3.358-7.5,7.5-7.5s7.5,3.357,7.5,7.5    v250.043C279.843,338.012,276.485,341.369,272.343,341.369z"/>
	</g>
	<path style="fill:#FFFFFF;" d="M27.398,365.612V86.128c0-2.388,1.892-4.164,4.278-4.243c6.078-0.202,17.08-0.22,23.122,0   c2.379,0.087,4.258,2.217,4.258,4.598v248.095L27.398,365.612z"/>
	<g>
		<path style="fill:#826075;" d="M90.065,311.411c-4.142,0-7.5-3.357-7.5-7.5V53.868c0-4.143,3.358-7.5,7.5-7.5s7.5,3.357,7.5,7.5    v250.043C97.565,308.054,94.207,311.411,90.065,311.411z"/>
	</g>
	<path style="fill:#FFDFA1;" d="M122.072,441.31l0.302-218.347L0,373.272v68.038c0,8.742,7.087,15.829,15.829,15.829h90.413   C114.985,457.139,122.072,450.052,122.072,441.31z"/>
	<path style="fill:#FFFFFF;" d="M443.198,366.155V86.672c0-2.388-1.892-4.164-4.278-4.243c-6.078-0.202-17.08-0.22-23.122,0   c-2.379,0.087-4.258,2.217-4.258,4.598v248.095L443.198,366.155z"/>
	<g>
		<path style="fill:#826075;" d="M380.531,311.276c4.142,0,7.5-3.357,7.5-7.5V53.733c0-4.143-3.358-7.5-7.5-7.5s-7.5,3.357-7.5,7.5    v250.043C373.031,307.919,376.389,311.276,380.531,311.276z"/>
	</g>
	<path style="fill:#FFDFA1;" d="M471.596,441.853v-78.117L349.524,221.173v220.68c0,8.742,7.087,15.829,15.829,15.829h90.413   C464.509,457.682,471.596,450.595,471.596,441.853z"/>
	<path style="fill:#FFFFFF;" d="M202.065,365.612V86.128c0-2.388,1.892-4.164,4.278-4.243c6.077-0.202,17.08-0.22,23.122,0   c2.379,0.087,4.258,2.217,4.258,4.598v248.095L202.065,365.612z"/>
	<g>
		<path style="fill:#826075;" d="M264.731,340.735c-4.142,0-7.5-3.357-7.5-7.5V83.192c0-4.143,3.358-7.5,7.5-7.5s7.5,3.357,7.5,7.5    v250.043C272.231,337.378,268.873,340.735,264.731,340.735z"/>
	</g>
	<path style="fill:#FFDFA1;" d="M296.738,441.31l0.292-219.278l-122.364-0.027V441.31c0,8.742,7.087,15.829,15.829,15.829h90.413   C289.651,457.139,296.738,450.052,296.738,441.31z"/>
</g>















</svg>
